<?xml version="1.0" standalone="no"?>
<!DOCTYPE svg PUBLIC "-//W3C//DTD SVG 20010904//EN"
 "http://www.w3.org/TR/2001/REC-SVG-20010904/DTD/svg10.dtd">
<svg version="1.0" xmlns="http://www.w3.org/2000/svg"
 width="513.000000pt" height="741.000000pt" viewBox="0 0 513.000000 741.000000"
 preserveAspectRatio="xMidYMid meet">
<metadata>
Created by potrace 1.15, written by Peter Selinger 2001-2017
</metadata>
<g transform="translate(0.000000,741.000000) scale(0.100000,-0.100000)"
fill="#000000" stroke="none">
<path d="M1735 7399 c-289 -12 -358 -20 -392 -45 -38 -28 -98 -58 -148 -74
-22 -7 -68 -26 -103 -42 -34 -16 -76 -31 -92 -34 -26 -6 -27 -8 -14 -21 13
-14 11 -19 -23 -52 -54 -53 -73 -61 -146 -61 -71 0 -94 -15 -89 -56 3 -19 -1
-24 -18 -24 -30 0 -35 26 -14 66 29 54 46 64 114 69 40 2 69 10 81 21 25 23
15 34 -21 24 -16 -5 -63 -6 -103 -3 l-74 6 -51 -64 c-205 -256 -234 -302 -277
-439 -20 -63 -54 -153 -76 -200 -23 -47 -51 -107 -64 -135 -13 -27 -26 -69
-30 -93 -3 -24 -17 -71 -30 -105 -14 -33 -25 -68 -25 -78 0 -9 -4 -19 -8 -21
-5 -1 -22 -43 -38 -93 -27 -84 -29 -99 -26 -225 2 -115 0 -146 -18 -203 -18
-58 -20 -76 -11 -118 19 -87 13 -236 -11 -299 -25 -66 -26 -109 -4 -219 9 -46
20 -165 24 -265 9 -178 9 -183 51 -301 35 -97 44 -138 48 -215 6 -87 10 -102
50 -181 31 -60 47 -108 54 -155 30 -204 31 -207 60 -236 15 -15 33 -28 41 -28
20 -1 68 -77 68 -108 0 -42 11 -72 26 -72 10 0 14 -15 14 -53 0 -29 6 -62 14
-73 8 -11 22 -43 31 -72 15 -44 22 -53 49 -61 20 -5 35 -5 43 3 45 41 43 394
-3 463 -8 12 -14 40 -14 61 0 22 -7 59 -16 83 -35 97 -55 199 -59 294 -2 55
-9 122 -16 149 -8 36 -8 59 0 85 6 20 8 46 5 59 -4 12 -1 29 6 37 8 10 11 31
7 60 -4 25 -2 47 3 50 6 3 10 48 10 99 0 66 4 98 15 112 18 24 19 51 3 57 -10
3 -10 8 1 21 23 27 22 162 -1 191 -22 28 -23 39 -3 55 20 17 20 103 -1 135
-14 22 -14 25 -1 31 10 3 16 20 17 47 6 165 12 208 36 245 9 14 18 43 20 64 3
47 50 134 86 161 16 12 28 27 28 34 0 7 10 13 23 13 35 0 109 93 111 139 1 20
6 26 26 26 23 0 25 3 22 37 -3 36 -2 37 75 83 71 42 82 46 125 40 40 -5 49 -2
61 16 12 17 21 20 47 14 25 -5 36 -3 51 14 20 22 44 27 53 13 5 -9 109 -5 136
5 35 13 136 12 156 -2 28 -18 56 1 85 57 22 43 29 44 96 17 29 -12 33 -11 67
19 40 35 59 38 116 21 33 -10 46 -9 95 12 32 13 65 34 75 46 16 21 24 22 98
18 45 -2 90 -9 101 -14 27 -15 67 -14 100 3 22 12 48 13 127 7 54 -4 110 -13
122 -20 19 -10 30 -10 53 -1 23 10 42 10 90 0 33 -7 62 -17 65 -21 3 -5 13 -9
23 -9 10 0 40 -12 67 -26 37 -20 57 -24 86 -20 22 4 54 0 79 -8 23 -8 56 -12
75 -9 28 5 41 0 79 -31 38 -31 48 -35 65 -26 27 14 84 -19 106 -62 12 -24 20
-29 38 -24 17 4 30 -2 49 -22 49 -50 64 -62 79 -62 8 0 25 -11 37 -24 18 -19
21 -31 16 -54 -5 -24 -2 -33 17 -46 12 -9 32 -16 44 -16 15 0 28 -14 48 -51
14 -28 26 -57 26 -64 0 -7 9 -15 20 -18 13 -3 22 -17 26 -36 4 -17 13 -36 20
-42 8 -6 14 -18 14 -26 0 -7 16 -23 35 -34 24 -15 35 -28 35 -45 0 -14 10 -30
24 -39 14 -9 29 -28 36 -43 16 -41 31 -62 88 -130 28 -35 52 -68 52 -74 0 -6
7 -18 16 -27 64 -65 144 -204 144 -251 0 -14 7 -38 15 -54 8 -15 15 -37 15
-48 0 -10 6 -31 14 -46 14 -28 43 -172 51 -252 2 -25 11 -65 20 -89 8 -24 15
-62 15 -85 0 -61 18 -113 46 -135 21 -17 23 -22 13 -39 -11 -17 -9 -25 14 -52
15 -17 27 -38 27 -46 0 -17 93 -64 127 -64 13 0 30 12 43 30 19 27 20 31 6 59
-10 19 -13 41 -10 61 6 25 1 38 -26 72 -32 39 -33 41 -14 54 10 7 25 18 32 24
16 14 15 93 -3 160 -20 74 -19 104 5 125 17 15 20 16 20 3 0 -9 9 -35 20 -59
11 -24 20 -61 20 -81 0 -21 9 -61 21 -90 12 -29 25 -80 29 -112 5 -33 16 -66
25 -75 15 -15 16 -5 11 119 -6 166 -19 288 -33 315 -6 11 -16 43 -22 71 -19
79 13 174 43 132 6 -8 24 -72 40 -142 16 -69 31 -124 33 -122 2 2 -8 66 -23
142 -20 106 -28 188 -33 344 -6 172 -11 213 -28 255 -74 183 -116 282 -137
323 -13 26 -45 108 -71 182 -26 74 -56 153 -67 174 -11 22 -37 81 -57 131 -44
109 -172 327 -242 411 -45 54 -116 135 -269 308 -30 35 -73 86 -95 115 -59 78
-206 186 -435 319 -147 86 -374 144 -637 162 -82 6 -195 15 -253 20 -124 10
-586 10 -855 -1z"/>
<path d="M3435 5080 c-44 -35 -75 -39 -82 -10 -7 25 -22 25 -73 -1 -30 -16
-40 -27 -40 -45 0 -23 -3 -24 -60 -24 -33 0 -60 -4 -60 -8 0 -4 -15 -6 -33 -4
-46 5 -82 -26 -92 -80 -6 -40 -8 -42 -20 -23 -41 60 -43 61 -64 48 -12 -7 -29
-13 -40 -13 -10 0 -21 -7 -25 -15 -3 -9 0 -15 9 -15 18 0 20 -16 4 -26 -6 -3
-15 -1 -19 5 -5 9 -21 0 -54 -28 -26 -23 -51 -41 -57 -41 -5 0 -7 -16 -3 -38
7 -45 -12 -68 -50 -58 -40 10 -51 -16 -51 -119 0 -81 3 -95 25 -128 31 -46 43
-50 79 -29 16 9 32 14 34 12 2 -3 0 -33 -6 -68 -10 -59 -9 -66 14 -110 13 -26
25 -49 27 -51 1 -3 17 4 35 14 38 22 142 54 212 64 28 4 61 13 75 21 34 20 70
23 64 5 -7 -17 15 -30 29 -16 7 7 6 16 -7 30 -21 23 -14 57 14 66 25 8 40 -1
40 -25 0 -11 9 -24 21 -30 24 -14 62 -7 148 27 55 22 66 24 88 12 20 -11 28
-11 46 1 69 43 153 80 183 80 43 0 122 19 130 31 8 13 -6 50 -16 44 -5 -3 -29
12 -53 34 -75 69 -119 83 -265 83 -93 0 -139 -5 -172 -17 -25 -9 -58 -20 -75
-25 -54 -14 -209 -78 -260 -106 -27 -16 -74 -48 -103 -71 -58 -47 -79 -55 -62
-23 6 11 15 20 20 20 5 0 23 20 40 44 19 28 50 55 83 73 56 30 68 56 27 61
-52 6 -53 12 -6 44 26 17 54 41 63 54 9 15 25 24 40 24 15 0 42 14 64 34 21
19 57 40 81 47 24 7 59 25 78 41 21 16 54 30 80 33 25 4 85 16 133 27 76 18
92 19 115 7 15 -7 30 -15 34 -17 5 -2 12 8 18 22 11 30 34 33 87 11 46 -19 63
-13 63 20 0 26 -2 26 -52 23 l-53 -3 3 38 4 38 -89 -7 c-48 -4 -97 -13 -108
-20 -13 -9 -25 -10 -35 -4 -8 5 -21 10 -29 10 -11 0 -11 -4 2 -18 42 -46 -6
-102 -58 -68 -32 21 -32 40 1 55 20 9 25 17 20 34 -3 12 -6 34 -6 50 0 34 -8
34 -55 -3z m213 -510 c36 -13 61 -27 59 -34 -4 -12 -13 -12 -177 -1 l-105 7
-109 -41 c-59 -23 -130 -53 -157 -66 -26 -14 -54 -25 -61 -25 -7 0 -46 -16
-87 -36 -75 -36 -97 -38 -67 -6 21 24 276 151 381 190 44 17 87 33 95 36 30
11 166 -3 228 -24z"/>
<path d="M1543 4634 c-15 -13 -34 -23 -41 -24 -7 0 -15 -7 -18 -15 -5 -11 -10
-12 -18 -6 -7 6 -89 12 -183 15 -132 4 -175 2 -189 -9 -15 -10 -16 -16 -6 -27
17 -21 5 -28 -43 -28 -34 0 -45 -5 -63 -30 -12 -16 -22 -38 -22 -49 0 -26 -10
-51 -21 -51 -5 0 -9 14 -9 30 0 23 -4 30 -20 30 -21 0 -24 -4 -34 -51 -4 -19
-14 -28 -35 -32 -31 -7 -71 -39 -89 -73 -17 -31 0 -76 37 -101 37 -25 54 -22
69 13 7 13 20 24 31 24 11 0 26 8 33 18 35 46 98 90 139 97 24 4 64 18 88 31
24 13 44 24 45 24 1 0 1 -14 1 -32 l0 -31 65 2 c36 1 87 9 113 17 45 15 51 15
95 -4 26 -11 79 -26 117 -33 39 -6 88 -22 111 -35 22 -13 47 -24 55 -24 8 0
29 -16 47 -34 l34 -34 -189 -5 c-199 -6 -262 -17 -390 -69 -41 -17 -66 -22
-77 -16 -12 7 -16 5 -16 -7 0 -9 -15 -22 -32 -30 -18 -7 -50 -34 -72 -60 -21
-26 -49 -51 -62 -57 -13 -6 -24 -20 -24 -30 0 -10 -8 -21 -17 -24 -10 -3 -38
-14 -63 -24 -25 -10 -64 -23 -86 -29 -41 -11 -73 -36 -61 -48 4 -3 55 8 114
26 91 26 125 31 214 31 93 0 108 2 124 20 10 11 26 20 37 20 14 0 17 -5 12
-24 -9 -37 22 -41 68 -11 33 22 47 25 79 20 46 -8 69 6 69 40 0 31 11 38 31
19 13 -12 22 -13 38 -5 11 6 35 11 53 11 33 0 145 30 206 56 18 8 39 14 47 14
20 0 29 -19 15 -35 -6 -8 -10 -22 -8 -32 5 -24 -33 -53 -79 -60 -47 -6 -145
-39 -198 -66 -37 -18 -38 -20 -18 -28 15 -5 49 0 105 17 46 15 99 30 118 34
19 4 66 22 104 39 61 28 68 34 62 54 -13 42 -11 50 18 60 22 7 37 6 63 -7 23
-11 46 -14 69 -10 29 5 35 3 45 -20 24 -52 71 -17 51 38 -15 40 -16 136 -2
136 18 0 12 78 -7 89 -17 9 -12 25 8 27 5 1 13 2 19 3 35 4 35 131 0 131 -10
0 -23 7 -30 15 -6 8 -21 17 -33 21 -11 3 -30 15 -41 25 -11 11 -27 19 -37 19
-9 0 -19 7 -23 15 -6 18 -57 20 -74 3 -9 -9 -23 0 -61 40 -28 29 -56 52 -63
52 -7 0 -25 6 -40 14 -15 8 -37 12 -48 9 -13 -4 -29 2 -43 15 -15 13 -40 21
-79 24 -48 4 -61 1 -85 -18z m184 -478 c12 -12 -4 -17 -83 -26 -117 -14 -252
-54 -373 -110 -59 -28 -113 -50 -119 -50 -44 0 39 63 152 115 71 33 205 71
281 79 51 5 134 1 142 -8z"/>
<path d="M2990 3652 c0 -4 34 -45 75 -90 66 -72 75 -87 75 -120 0 -66 -16 -76
-111 -77 -95 0 -111 -7 -208 -84 -68 -54 -87 -61 -106 -34 -10 13 -17 14 -43
5 -17 -6 -75 -14 -129 -18 -69 -5 -101 -12 -109 -22 -9 -12 -20 -13 -50 -7
-76 17 -167 11 -207 -13 -48 -28 -55 -28 -89 5 -35 34 -35 54 1 139 57 136 49
168 -28 120 -35 -23 -41 -31 -41 -61 0 -28 -9 -44 -42 -78 -24 -24 -56 -63
-73 -88 -16 -24 -69 -82 -117 -129 -68 -67 -90 -95 -103 -133 -25 -77 -85
-149 -128 -152 -27 -2 -36 -22 -26 -64 12 -50 12 -47 -21 -81 -17 -17 -40 -30
-53 -30 -34 0 -43 -45 -16 -82 10 -15 19 -33 19 -41 0 -20 39 -52 93 -75 26
-12 63 -36 82 -54 74 -71 101 -93 117 -100 15 -6 20 -26 30 -117 4 -36 24 -36
36 -1 10 28 14 30 59 30 77 0 98 41 43 80 -32 23 -39 40 -16 40 30 0 126 -51
137 -72 16 -32 46 -56 106 -83 37 -17 52 -30 55 -47 4 -29 34 -35 59 -12 17
15 24 16 54 5 34 -12 75 -8 75 9 0 4 -9 10 -20 13 -38 10 -20 33 45 60 36 15
74 27 84 27 29 0 33 13 10 31 -29 21 -17 39 27 39 19 0 48 6 63 14 34 18 151
46 194 46 18 1 43 7 57 15 32 18 83 20 78 3 -3 -7 -27 -22 -54 -33 -27 -11
-51 -24 -52 -30 -1 -5 17 -11 41 -13 63 -4 113 31 110 79 -2 33 1 35 70 69 40
19 82 35 94 35 12 1 30 8 40 17 23 20 144 69 155 62 18 -11 6 -36 -27 -55 -40
-24 -41 -26 -15 -58 l20 -23 66 68 65 69 -4 -43 c-4 -31 -15 -54 -41 -82 -37
-41 -45 -60 -24 -60 15 0 68 50 68 65 0 6 14 24 30 40 17 16 30 35 30 42 0 17
56 67 83 73 11 3 25 18 30 35 5 17 10 31 11 32 1 1 13 4 29 8 23 6 27 4 27
-14 0 -12 -7 -35 -15 -50 -13 -27 -12 -31 17 -77 16 -27 45 -61 64 -77 18 -15
36 -36 39 -47 10 -30 22 -24 50 25 27 45 27 45 10 95 -14 42 -15 53 -4 67 8 8
12 28 11 44 -2 19 5 37 21 55 15 16 28 45 32 70 4 29 14 50 31 63 14 11 24 29
24 44 0 14 9 46 20 72 29 68 27 101 -10 120 -16 9 -30 20 -30 26 0 14 -81 88
-97 89 -6 0 -24 14 -40 31 -15 17 -52 42 -81 56 -29 14 -57 34 -63 44 -5 11
-16 19 -23 19 -8 0 -21 12 -31 26 -13 20 -22 24 -44 19 -23 -5 -37 1 -72 31
-24 20 -56 56 -72 80 -18 30 -34 44 -49 44 -12 0 -29 6 -37 13 -19 16 -88 37
-121 37 -13 0 -37 11 -54 23 -29 22 -134 67 -156 67 -6 0 -10 -3 -10 -8z m290
-232 c25 -16 55 -40 67 -52 19 -22 24 -36 39 -133 4 -22 16 -53 27 -69 11 -15
20 -42 19 -58 0 -17 3 -41 9 -54 7 -21 12 -23 28 -14 24 12 88 13 95 1 10 -15
-12 -61 -29 -61 -18 0 -30 -27 -40 -95 -4 -27 -12 -53 -18 -57 -7 -4 -1 -11
16 -17 15 -6 27 -14 27 -19 0 -12 -116 -21 -208 -16 -41 2 -100 -3 -131 -10
-37 -9 -64 -10 -75 -4 -9 5 -21 6 -28 2 -6 -4 -31 -6 -55 -5 -31 1 -63 -8
-106 -28 -101 -47 -163 -62 -302 -68 -132 -6 -305 -42 -377 -79 -16 -8 -36
-13 -43 -11 -7 3 -18 36 -25 74 -7 37 -19 80 -26 95 -21 41 -18 85 6 91 24 6
35 30 25 55 -4 9 -9 30 -11 46 -7 52 -30 67 -93 62 -67 -7 -77 -15 -63 -56 11
-29 7 -60 -7 -60 -9 1 -51 70 -51 85 0 8 6 18 14 22 18 11 36 47 36 73 0 27
39 80 59 80 17 0 78 -63 86 -90 4 -14 24 -18 98 -23 119 -9 140 -15 134 -38
-8 -31 31 -44 88 -28 41 12 165 -11 225 -41 33 -17 36 -17 77 3 24 12 43 26
43 32 0 6 16 19 35 28 21 10 36 25 39 39 2 13 8 44 14 71 7 38 7 47 -4 47 -16
0 -18 14 -4 39 5 11 26 21 49 25 23 3 84 27 137 53 113 54 114 56 123 186 2
15 36 6 81 -23z m20 -795 c-7 -8 -19 -15 -26 -15 -8 0 -51 -25 -97 -55 -58
-39 -91 -55 -115 -55 -18 0 -43 -7 -55 -15 -36 -23 -137 -55 -176 -55 -20 0
-58 -7 -86 -16 -27 -8 -77 -14 -110 -13 -33 1 -76 -1 -95 -5 -19 -4 -46 -3
-60 2 -19 7 -31 5 -53 -10 -34 -24 -61 -20 -65 10 -3 20 1 22 40 22 24 0 54 7
67 16 16 12 36 15 69 11 38 -4 48 -1 63 17 15 19 27 21 112 21 73 0 99 4 114
16 41 37 88 53 148 51 58 -1 61 0 83 34 23 35 25 36 70 29 34 -4 56 -2 77 9
17 9 47 16 69 16 33 0 37 -2 26 -15z"/>
<path d="M3796 1401 c-11 -18 -201 -158 -289 -213 -130 -82 -280 -153 -367
-173 -80 -19 -219 -38 -285 -38 -39 0 -159 16 -200 26 -139 35 -181 51 -275
102 -14 8 -43 24 -65 36 -22 11 -54 35 -71 51 -27 25 -35 28 -52 19 -64 -34
84 -148 331 -255 21 -9 43 -16 49 -16 6 0 26 -12 45 -26 94 -72 245 -102 371
-74 69 15 208 75 240 104 22 20 23 20 58 1 l35 -19 54 30 c57 30 67 46 38 63
-14 8 -15 12 -6 22 9 9 19 9 42 -1 39 -16 65 1 58 38 -3 18 5 33 36 63 23 21
47 39 54 39 20 0 101 66 138 113 19 23 45 55 59 71 14 16 26 33 26 37 0 12
-17 11 -24 0z"/>
<path d="M3741 496 c-18 -28 -30 -36 -54 -36 -21 0 -41 -10 -63 -31 l-32 -31
-31 23 -31 22 -49 -26 c-27 -15 -61 -27 -76 -27 -14 0 -36 -5 -48 -11 -11 -7
-50 -13 -86 -14 -37 -2 -78 -6 -93 -10 -17 -4 -44 -1 -71 10 -58 22 -91 17
-95 -13 -6 -38 16 -55 60 -48 48 8 48 -3 0 -30 -30 -17 -45 -19 -81 -13 -55
10 -71 24 -71 60 0 44 -31 37 -67 -15 -30 -42 -30 -44 -12 -52 17 -8 18 -11 6
-28 -14 -19 -15 -18 -37 4 -22 22 -26 22 -69 11 -60 -16 -80 -35 -64 -61 16
-25 3 -33 -41 -24 -23 4 -46 1 -67 -10 -39 -20 -97 -21 -118 -2 -9 7 -50 21
-91 31 -46 11 -123 43 -197 81 -131 67 -168 80 -55 18 37 -20 106 -59 154 -86
109 -61 344 -140 488 -162 126 -20 599 -25 696 -8 93 16 294 98 384 157 45 29
77 54 71 56 -6 3 -5 10 2 19 15 20 124 104 155 119 12 7 22 17 22 24 0 8 14
26 30 42 17 16 30 37 30 47 0 23 -19 23 -27 1 -9 -27 -34 -53 -51 -53 -7 0
-27 9 -42 20 -16 11 -52 27 -82 36 -29 9 -60 20 -69 24 -9 5 -36 11 -60 15
-42 6 -45 4 -68 -29z"/>
</g>
</svg>
